<svg xmlns="http://www.w3.org/2000/svg" xmlns:xlink="http://www.w3.org/1999/xlink" viewBox="0 0 78 78"><defs><style>.cls-1{fill:none;stroke:#fbb03b;stroke-miterlimit:10;stroke-width:2px;}.cls-2{fill:url(#linear-gradient);}</style><linearGradient id="linear-gradient" x1="15.58" y1="40.53" x2="61.51" y2="40.53" gradientUnits="userSpaceOnUse"><stop offset="0" stop-color="#dcc215"/><stop offset="0.42" stop-color="#f2efa5"/><stop offset="1" stop-color="#ffff83"/></linearGradient></defs><title>icon_return_m</title><g id="图层_2" data-name="图层 2"><g id="_9" data-name="9"><g id="背景_复制_2" data-name="背景_复制 2"><circle class="cls-1" cx="39" cy="39" r="38"/><path class="cls-2" d="M27.22,25.45a2.76,2.76,0,0,0-3.9,0L16.4,32.25a2.76,2.76,0,0,0,0,3.9l6.92,7a2.76,2.76,0,0,0,3.93-3.88L25,37H47.51A8.49,8.49,0,0,1,56,45.49v.23a8.42,8.42,0,0,1-2.48,6,2.76,2.76,0,1,0,3.9,3.9,13.91,13.91,0,0,0,4.1-9.9v-.23a14,14,0,0,0-14-14H25l2.17-2.14A2.76,2.76,0,0,0,27.22,25.45Z"/></g></g></g></svg>