<svg xmlns="http://www.w3.org/2000/svg" xmlns:xlink="http://www.w3.org/1999/xlink" viewBox="0 0 78 78"><defs><style>.cls-1{fill:url(#New_Gradient_Swatch_2);}.cls-2{fill:url(#New_Gradient_Swatch_2-2);}.cls-3{fill:url(#New_Gradient_Swatch_2-3);}.cls-4{fill:none;stroke:#fbb03b;stroke-miterlimit:10;stroke-width:2px;}</style><linearGradient id="New_Gradient_Swatch_2" x1="15.13" y1="34.62" x2="31.49" y2="34.62" gradientUnits="userSpaceOnUse"><stop offset="0" stop-color="#f6ab3d"/><stop offset="0.48" stop-color="#f3ed91"/><stop offset="0.49" stop-color="#f3ed91"/><stop offset="0.83" stop-color="#f5bd55"/><stop offset="1" stop-color="#f6ab3d"/></linearGradient><linearGradient id="New_Gradient_Swatch_2-2" x1="20.39" y1="36.03" x2="53.7" y2="36.03" xlink:href="#New_Gradient_Swatch_2"/><linearGradient id="New_Gradient_Swatch_2-3" x1="42.18" y1="51.3" x2="60.87" y2="51.3" xlink:href="#New_Gradient_Swatch_2"/></defs><title>icon_playing_m</title><g id="图层_2" data-name="图层 2"><g id="_2" data-name="2"><path class="cls-1" d="M29.19,17.71c-3.08,11.85-10.46,21.83-14,33.48-.38,1.24,1.42,1.65,1.89.52C21.69,40.62,29,30.2,31.46,18.33,31.77,16.86,29.57,16.23,29.19,17.71Z"/><path class="cls-2" d="M53.35,14.22A6.9,6.9,0,0,0,49.76,12a7.78,7.78,0,0,0-1.39-.95,1.19,1.19,0,0,0-1.6.42c-.46.7-.89,1.45-1.3,2.21a19.92,19.92,0,0,0-2.24,3.12,1.15,1.15,0,0,0,1.39,1.64,9,9,0,0,0,.81.62c-1.08,1-1.72,3-2.34,4.19s-1.17,2.32-1.71,3.51c-2.08-.58-4.06.08-6.12,1.78-3.62,3-3,8.24-5.84,11.5s-7.5,4.22-8.67,8.82a10.49,10.49,0,0,0,2.18,9.64,6.72,6.72,0,0,0,1.2,1.1,1.85,1.85,0,0,0,.86.54,7.79,7.79,0,0,0,2.86.83.82.82,0,0,0,.69.05A12,12,0,0,0,38,56.55c3.46-4.8,1.26-10.73,4.53-15.6,2.5-3.74,4.05-7.56,1.94-11.9a1,1,0,0,0-.09-.12.9.9,0,0,0-.36-.7,9.91,9.91,0,0,0-1-.7c.62-1.06,1.23-2.13,1.83-3.19s1.9-2.6,2.33-4a2.19,2.19,0,0,0,1.64.18c2.31-.63,3.51-3,4.69-4.84A1.19,1.19,0,0,0,53.35,14.22Zm-23,42.25c-2.18,1.44-.29-4.06-.21-4.2.43-.78,1.74-2.71,3-2.91a10.23,10.23,0,0,1,.54,2.91A9.59,9.59,0,0,1,30.3,56.48Z"/><path class="cls-3" d="M59.23,36.35a1.19,1.19,0,0,0-1.4-.8c-3.43.53-6.9.74-10.34,1.24a1.08,1.08,0,0,0-.79,1c-.14,5.26.21,10.51.2,15.77a31.35,31.35,0,0,1-.17,3.27c-5.37-2.24-6.24,11.13-1.18,8.59,2.78-1.4,3.28-7.24,3.45-9.84.28-4.27,0-8.59-.17-12.87a1.14,1.14,0,0,0,.43.09h0a.43.43,0,0,0-.28.3c-.33,1.84,7.53.56,8.56.57a1,1,0,0,0,.9-.52,60.21,60.21,0,0,1-.31,10.1q-.21,2.46-.51,4.91c-1.45-2.1-4.49,1.74-5.16,2.95-1.16,2.12.56,7,3.65,5.69,3.42-1.43,3.51-6.3,3.84-9.5C60.66,50.49,61.92,42.93,59.23,36.35Z"/></g></g></svg>