<svg xmlns="http://www.w3.org/2000/svg" xmlns:xlink="http://www.w3.org/1999/xlink" viewBox="0 0 398.6 13.89"><defs><style>.cls-1{fill:url(#New_Gradient_Swatch_2);}.cls-2{fill:url(#New_Gradient_Swatch_2-2);}.cls-3{fill:url(#New_Gradient_Swatch_2-3);}.cls-4{fill:url(#New_Gradient_Swatch_2-4);}.cls-5{fill:url(#New_Gradient_Swatch_2-5);}.cls-6{fill:url(#New_Gradient_Swatch_2-6);}.cls-7{fill:url(#New_Gradient_Swatch_2-7);}.cls-8{fill:url(#New_Gradient_Swatch_2-8);}.cls-9{fill:url(#New_Gradient_Swatch_2-9);}</style><linearGradient id="New_Gradient_Swatch_2" x1="14.53" y1="6.95" x2="384.33" y2="6.95" gradientUnits="userSpaceOnUse"><stop offset="0" stop-color="#f6ab3d"/><stop offset="0.48" stop-color="#f3ed91"/><stop offset="0.49" stop-color="#f3ed91"/><stop offset="0.83" stop-color="#f5bd55"/><stop offset="1" stop-color="#f6ab3d"/></linearGradient><linearGradient id="New_Gradient_Swatch_2-2" x1="382.55" y1="6.95" x2="387.39" y2="6.95" xlink:href="#New_Gradient_Swatch_2"/><linearGradient id="New_Gradient_Swatch_2-3" x1="386.63" y1="6.95" x2="391.46" y2="6.95" xlink:href="#New_Gradient_Swatch_2"/><linearGradient id="New_Gradient_Swatch_2-4" x1="390.71" y1="6.95" x2="398.6" y2="6.95" xlink:href="#New_Gradient_Swatch_2"/><linearGradient id="New_Gradient_Swatch_2-5" x1="376.98" y1="6.95" x2="385.46" y2="6.95" gradientTransform="translate(374.27 388.17) rotate(-90)" xlink:href="#New_Gradient_Swatch_2"/><linearGradient id="New_Gradient_Swatch_2-6" x1="11.21" y1="6.95" x2="16.05" y2="6.95" gradientTransform="translate(6.68 20.58) rotate(-90)" xlink:href="#New_Gradient_Swatch_2"/><linearGradient id="New_Gradient_Swatch_2-7" x1="7.14" y1="6.95" x2="11.97" y2="6.95" xlink:href="#New_Gradient_Swatch_2"/><linearGradient id="New_Gradient_Swatch_2-8" x1="0" y1="6.95" x2="7.89" y2="6.95" xlink:href="#New_Gradient_Swatch_2"/><linearGradient id="New_Gradient_Swatch_2-9" x1="13.14" y1="6.95" x2="21.62" y2="6.95" gradientTransform="translate(10.43 24.33) rotate(-90)" xlink:href="#New_Gradient_Swatch_2"/></defs><title>title_bar_m</title><g id="图层_2" data-name="图层 2"><g id="_4" data-name="4"><rect class="cls-1" x="14.53" y="5.95" width="369.79" height="1.99"/><path class="cls-2" d="M382.55,11.48V2.42A2.42,2.42,0,0,1,385,0h0a2.42,2.42,0,0,1,2.42,2.42v9.06A2.42,2.42,0,0,1,385,13.89h0A2.42,2.42,0,0,1,382.55,11.48Z"/><path class="cls-3" d="M386.63,9.49V4.4A2.42,2.42,0,0,1,389,2h0a2.42,2.42,0,0,1,2.42,2.42V9.49A2.42,2.42,0,0,1,389,11.91h0A2.42,2.42,0,0,1,386.63,9.49Z"/><path class="cls-4" d="M390.71,6.95h0a3,3,0,0,1,0-.41A2.78,2.78,0,0,1,395,4.71l3.62,2.24L395,9.19a2.78,2.78,0,0,1-4.24-1.83A3,3,0,0,1,390.71,6.95Z"/><rect class="cls-5" x="378.55" y="2.71" width="5.34" height="8.48" transform="translate(388.17 -374.27) rotate(90)"/><rect class="cls-6" x="6.68" y="4.53" width="13.89" height="4.83" rx="1.41" ry="1.41" transform="translate(20.58 -6.68) rotate(90)"/><path class="cls-7" d="M12,9.49V4.4A2.42,2.42,0,0,0,9.55,2h0A2.42,2.42,0,0,0,7.14,4.4V9.49a2.42,2.42,0,0,0,2.42,2.42h0A2.42,2.42,0,0,0,12,9.49Z"/><path class="cls-8" d="M7.89,6.95h0a3,3,0,0,0,0-.41A2.78,2.78,0,0,0,3.62,4.71L0,6.95,3.62,9.19A2.78,2.78,0,0,0,7.86,7.36,3,3,0,0,0,7.89,6.95Z"/><rect class="cls-9" x="14.71" y="2.71" width="5.34" height="8.48" transform="translate(24.33 -10.43) rotate(90)"/></g></g></svg>