<svg xmlns="http://www.w3.org/2000/svg" viewBox="0 0 748.27 132.09"><defs><style>.cls-1{fill:none;}.cls-2{fill:#c49a6c;}</style></defs><title>corner_bottom_m</title><g id="图层_2" data-name="图层 2"><g id="_4" data-name="4"><g id="图层_2_复制_4" data-name="图层 2_复制 4"><circle class="cls-1" cx="670.38" cy="110.16" r="2.54" transform="translate(-6.7 165.88) rotate(-14.04)"/><circle class="cls-1" cx="709.73" cy="114.09" r="1.13"/><circle class="cls-1" cx="707.03" cy="118.77" r="0.71"/><circle class="cls-1" cx="701.64" cy="125.29" r="1.13"/><circle class="cls-1" cx="674.2" cy="114.03" r="1.31" transform="translate(-7.52 166.97) rotate(-14.04)"/><circle class="cls-1" cx="715.13" cy="111.4" r="0.99"/><circle class="cls-1" cx="681.24" cy="93.15" r="2.98"/><circle class="cls-1" cx="77.89" cy="110.16" r="2.54" transform="translate(-47.88 159) rotate(-75.96)"/><circle class="cls-1" cx="41.23" cy="118.77" r="0.71"/><circle class="cls-1" cx="46.63" cy="125.29" r="1.13"/><circle class="cls-1" cx="727.09" cy="95.9" r="0.85"/><circle class="cls-1" cx="33.14" cy="111.4" r="0.99"/><circle class="cls-1" cx="67.03" cy="93.15" r="2.98"/><circle class="cls-1" cx="74.06" cy="114.03" r="1.3" transform="translate(-54.5 158.3) rotate(-76)"/><circle class="cls-1" cx="729.22" cy="90.94" r="1.7"/><circle class="cls-1" cx="38.53" cy="114.09" r="1.14"/><circle class="cls-1" cx="19.05" cy="90.94" r="1.7"/><circle class="cls-1" cx="12.66" cy="89.52" r="0.85"/><circle class="cls-1" cx="21.18" cy="95.9" r="0.85"/><circle class="cls-1" cx="8.12" cy="84.7" r="0.99"/><circle class="cls-1" cx="735.61" cy="89.52" r="0.85"/><circle class="cls-1" cx="740.15" cy="84.7" r="0.99"/><path class="cls-2" d="M.27,77.19H0v2.63a1.5,1.5,0,0,1,.36-.08,1.56,1.56,0,0,1,0,3.11A1.51,1.51,0,0,1,0,82.77v24.06H.88c0-2.2,0-4.65,0-7.12L1,84.77,2,99.68c.17,2.51.34,5,.5,7.23q1.11.09,2.19.28c0-.12,0-.25,0-.37,0-.59,0-1.21,0-1.86s0-1.31,0-2,.06-1.36.13-2,.12-1.36.2-2,.19-1.32.28-2,.24-1.24.35-1.81L6,93.56l.39-1.33c.11-.4.25-.73.35-1l.32-.87-.23.9c-.07.29-.18.63-.24,1l-.26,1.35-.23,1.61C6,95.82,6,96.42,5.93,97S5.84,98.32,5.84,99s0,1.33,0,2,0,1.34.07,2,.09,1.3.15,1.92.12,1.22.2,1.79c0,.3.08.59.12.87.59.15,1.18.32,1.75.51.09-.25.18-.51.28-.78.22-.56.43-1.16.68-1.76s.52-1.23.81-1.86.53-1.29.79-1.94.48-1.32.68-2,.41-1.31.59-1.94.33-1.25.48-1.84.26-1.15.36-1.67.16-1,.22-1.42.09-.8.1-1.1a5.52,5.52,0,0,0,0-.72v-.26l.17,0,0,.25a5.72,5.72,0,0,1,.09.72c0,.32,0,.7,0,1.14s0,.93-.06,1.47-.09,1.12-.17,1.73S13.08,97.37,13,98s-.25,1.35-.42,2-.35,1.38-.53,2.08-.39,1.39-.59,2.07-.41,1.35-.67,2A17.82,17.82,0,0,1,9.94,108l-.34.64,1,.44.2-.43c.27-.6.56-1.2.86-1.79s.61-1.18.91-1.75.64-1.12,1-1.65.64-1,1-1.5.63-.91.92-1.3.57-.76.81-1.07.46-.59.65-.81c.37-.44.59-.68.59-.68l.13.1s-.18.27-.48.75-.73,1.18-1.19,2c-.24.42-.49.89-.74,1.39s-.51,1-.78,1.56l-.77,1.7c-.24.59-.51,1.17-.73,1.78s-.45,1.2-.62,1.81l-.18.6a25.12,25.12,0,0,1,4.18,2.8c4.53-5.66,8.49-10.91,9.39-13a10.71,10.71,0,0,0-14.07-14A11.64,11.64,0,0,0,.45,77.19H.27ZM20.32,95.9a.85.85,0,1,1,.85.85A.85.85,0,0,1,20.32,95.9Zm-3-5a1.7,1.7,0,1,1,1.7,1.7A1.7,1.7,0,0,1,17.34,90.94Zm-5.54-1.42a.85.85,0,1,1,.85.85A.85.85,0,0,1,11.81,89.52ZM7.12,84.7a1,1,0,1,1,1,1A1,1,0,0,1,7.12,84.7Z"/><path class="cls-2" d="M52.22,132.09h2.63c0-.09,0-.18,0-.27A11.63,11.63,0,0,0,44.7,120.28,10.71,10.71,0,0,0,31,104.74c-2,1-7,5.23-12.37,10.06A25.14,25.14,0,0,1,21,117.73c.33-.17.67-.34,1-.54.53-.32,1.05-.67,1.55-1s.94-.63,1.33-.91.68-.52.9-.69l.34-.28.13.11-.24.37c-.16.24-.41.56-.71.93s-.68.8-1.1,1.23-.89.88-1.37,1.31c-.32.28-.62.58-.92.85.33.56.64,1.13.93,1.72.34-.14.68-.28,1-.44s.77-.39,1.15-.58.74-.39,1.09-.6.68-.41,1-.6.59-.4.86-.58.49-.38.69-.54l.5-.45.41-.45.14.1-.3.52c-.1.16-.25.35-.42.58s-.38.44-.6.69-.49.51-.77.76-.59.53-.92.79-.67.53-1,.79-.72.51-1.1.75l-1,.69c.18.44.35.89.51,1.34l.57-.23c.52-.2,1.06-.38,1.61-.57s1.1-.42,1.65-.63,1.08-.48,1.6-.74,1-.52,1.52-.78,1-.54,1.39-.8.85-.52,1.2-.78.7-.49,1-.72.54-.41.73-.59l.62-.55.12.12-.53.64a9.21,9.21,0,0,1-.65.71c-.25.28-.56.56-.9.87s-.72.63-1.12,1-.86.66-1.32,1-1,.67-1.48,1-1,.62-1.58.92-1.07.59-1.61.87a16.38,16.38,0,0,1-1.6.76l-.7.25q.16.61.3,1.23l.87-.22c.71-.19,1.43-.39,2.14-.61s1.42-.47,2.11-.71,1.37-.5,2-.76l1-.39.9-.4c.59-.25,1.13-.53,1.64-.78s.95-.51,1.34-.74.72-.44,1-.62l.85-.6.11.13-.77.7c-.25.22-.57.46-.94.75s-.81.57-1.28.9-1,.65-1.57,1-1.18.66-1.81,1-1.3.65-2,1-1.39.61-2.09.89-1.42.56-2.11.85l-1,.39c0,.2.05.4.08.6.44-.11.89-.23,1.36-.33.73-.18,1.5-.34,2.27-.5s1.57-.3,2.36-.44,1.58-.26,2.37-.36,1.55-.2,2.3-.28,1.47-.14,2.16-.2l1.93-.12,1.64-.06c.49,0,.91,0,1.26,0h1.1l-1.09.09c-.35,0-.77.06-1.25.12L40,126.9l-1.91.28c-.67.12-1.38.23-2.11.38s-1.49.29-2.25.47-1.53.36-2.3.55-1.53.41-2.28.62-1.48.44-2.18.67-1.09.36-1.6.54c0,.48,0,1,0,1.45,0,.08,0,.15,0,.23H49.26a1.51,1.51,0,0,1-.08-.41,1.56,1.56,0,0,1,3.12,0A1.5,1.5,0,0,1,52.22,132.09ZM34.13,111.4a1,1,0,1,1-1-1A1,1,0,0,1,34.13,111.4Zm5.54,2.69A1.14,1.14,0,1,1,38.53,113,1.14,1.14,0,0,1,39.67,114.09Zm2.27,4.68a.71.71,0,1,1-.71-.71A.71.71,0,0,1,41.94,118.77Zm5.82,6.52a1.14,1.14,0,1,1-1.14-1.13A1.13,1.13,0,0,1,47.76,125.29Z"/><path class="cls-2" d="M0,121.38l.36,0a10.5,10.5,0,0,1,10.45,10.49c0,.08,0,.15,0,.23H0Z"/><path class="cls-2" d="M14.91,131.86A14.6,14.6,0,0,0,.36,117.27l-.36,0V110.2l.36,0A21.69,21.69,0,0,1,22,131.86c0,.08,0,.15,0,.23H14.9C14.9,132,14.91,131.93,14.91,131.86Z"/><path class="cls-2" d="M26.26,104.39l.06-.09h.06Z"/><path class="cls-2" d="M43.13,77.3l-6.37,7.59-6.32,7.63-1,1.24a13.78,13.78,0,0,0-2.12-5.84l.2-.2A35.79,35.79,0,0,0,35.94,75a12.39,12.39,0,0,1,5.27-6.28,45.21,45.21,0,0,1,13-5.26,50.13,50.13,0,0,1-4.69,20.95A16,16,0,0,1,42.64,92a78.33,78.33,0,0,0-7.16,4.51c-.78.56-1.61,1.17-2.52,1.87l-5.49,4.21a14,14,0,0,0,1-1.81,13.61,13.61,0,0,0,1-4.2l2.28-3,6-7.89,5.94-7.93,3-4,2.93-4-3.23,3.76Z"/><path class="cls-2" d="M104,132.09h7.19l.2-.15c-7.78-6.39-18.88-11.22-31.75-13.56A51,51,0,0,0,91.15,106,48.82,48.82,0,0,0,77.72,103a10.25,10.25,0,0,0-8.48,3.39l-.66.71a15.62,15.62,0,0,1-3.16,2.54,10.64,10.64,0,0,1-1.93.9,8.69,8.69,0,0,1-1,.3l-.27.06-.27,0-.46.07a12.18,12.18,0,0,1-2.12.08,8.94,8.94,0,0,1-2.1-.36,8.22,8.22,0,0,1-3.61-2.21,9.11,9.11,0,0,1-2-3.44,8,8,0,0,1-.39-2,5,5,0,0,1,0-.54v-.2l0-.24c0-.33.07-.62.12-.93a7.8,7.8,0,0,1,1.42-3.34,6.34,6.34,0,0,1,2.75-2.1,5.89,5.89,0,0,1,1.56-.38,7.71,7.71,0,0,1,.77,0h.33l.39,0a5.84,5.84,0,0,1,2.62.87A4.92,4.92,0,0,1,62.81,98a5.18,5.18,0,0,1,.39,1,5.28,5.28,0,0,1,.16.92,6,6,0,0,1-.38,2.58,6.2,6.2,0,0,1-.26.62l-.1.21s.07-.31.14-.88a6.3,6.3,0,0,0-.16-2.39,4.44,4.44,0,0,0-.72-1.43,3.64,3.64,0,0,0-1.41-1.08,4.35,4.35,0,0,0-2-.36l-.25,0-.31,0-.53.11a5.11,5.11,0,0,0-1,.39,4.08,4.08,0,0,0-1.64,1.53,6,6,0,0,0-.78,2.38c0,.22,0,.46,0,.66v.36a2.19,2.19,0,0,0,0,.27,5.3,5.3,0,0,0,.33,1.25,6.64,6.64,0,0,0,1.49,2.33,5.46,5.46,0,0,0,2.36,1.4,6.85,6.85,0,0,0,1.43.25,9.58,9.58,0,0,0,1.5,0l.45-.06.11,0h.09l.17,0a5.79,5.79,0,0,0,.72-.19,7.71,7.71,0,0,0,1.41-.64,13.62,13.62,0,0,0,2.63-2,32.93,32.93,0,0,0,4.26-5.33,46.21,46.21,0,0,0,5.76-13.28c-11.69-1.14-26.25,3-39.41,12.36-.83.59-1.64,1.19-2.43,1.8l.41,0,.6,0h0c.34,0,.68,0,1,0l.27,0,.74.08.27,0,.73.14L39,101l.75.2.18.06.79.28.13.05q.41.16.81.36l.08,0q.43.21.83.44l0,0q.43.25.84.53c1.5-.95,3-1.89,4.52-2.82-1.38,1-2.76,2.06-4.14,3.08.35.25.68.53,1,.82l.24.21.39.38.21.21.39.42.16.18.4.49.05.07a13.87,13.87,0,0,1,1.25,2h0l1.2-.56-1.14.66.07.13c.11.23.22.45.31.68l.09.21.19.49.08.24q.09.25.16.5l.06.21c.07.24.13.47.18.71h0c.06.25.1.5.14.75l0,.17c0,.19.06.38.08.57l0,.21q0,.28,0,.56c0,.06,0,.12,0,.18,0,.25,0,.49,0,.74h0l3.63-1.15-3.64,1.52a13.77,13.77,0,0,1-.18,1.73v.08q-.06.36-.14.71l0,.18c-.06.26-.13.52-.21.78.26.11.5.23.75.35l.58.31h0l1.94-.46c2.49-.59,5-1.16,7.48-1.72Q56,118,52.3,119.08l-1.3.39c.34.21.66.44,1,.68l.34.26.32.26c.22.18.43.37.64.57l8.32-1.49L66,119l4.41-.74-4.35,1.07-4.35,1-7.59,1.77q.36.41.7.85l0,0q.32.42.61.87v0a14.64,14.64,0,0,1,1.05,1.94h0c1.92-.17,3.78-.32,5.56-.46,2.17-.18,4.22-.33,6.11-.46,3.79-.27,6.95-.45,9.16-.57,1.11-.06,2-.09,2.57-.12l.91,0-.9.15c-.59.1-1.44.25-2.54.42-2.19.35-5.32.84-9.08,1.36-1.88.26-3.92.55-6.07.83l-5.06.65h0a14.51,14.51,0,0,1,.61,4h0l7.1.08c3.09,0,6.07.09,8.9.14s5.5.12,8,.18l3.57.1H99.42a2.54,2.54,0,0,1,4.62,0ZM64,93.15a3,3,0,1,1,3,3A3,3,0,0,1,64,93.15Zm11.29,21.2a1.31,1.31,0,1,1-1-1.58A1.31,1.31,0,0,1,75.33,114.35Zm1.94-1.72a2.54,2.54,0,1,1,3.08-1.85A2.54,2.54,0,0,1,77.27,112.63Z"/><path class="cls-2" d="M0,34.9V28.23l.18,0C.13,29.94.07,32.21,0,34.9Z"/><path class="cls-2" d="M11.1,17.27c1.22,1.74,2.55,5.35,2.27,7.45v0c-.85,6.38-4.49,8.41-4.49,8.41a9,9,0,0,0,8.58-6.69c4,6.27,6.67,12,5.78,17.88-.55.14-1.1.29-1.65.47a24.06,24.06,0,0,0-5.71,2.62A15.93,15.93,0,0,0,11.14,52c-.16.23-.3.47-.44.71l-.07.12,0,.08-.09.17-.18.34c-.12.24-.25.53-.37.79s-.2.53-.3.79a9.51,9.51,0,0,0-.5,3.36A7.82,7.82,0,0,0,10,61.62a8.19,8.19,0,0,0,2,2.5,8.82,8.82,0,0,0,5.47,2.08,7.46,7.46,0,0,0,4.89-1.64,4.83,4.83,0,0,0,1.35-1.9A4.4,4.4,0,0,0,24,60.59a3.19,3.19,0,0,0-.23-.93,2.72,2.72,0,0,0-.49-.74A3.75,3.75,0,0,0,22.05,58,3.52,3.52,0,0,0,20,57.75a2.51,2.51,0,0,0-.52.16l-.17.08.17-.07a2.45,2.45,0,0,1,.53-.11,3.39,3.39,0,0,1,1.94.43,2.74,2.74,0,0,1,1.59,2.39,3.86,3.86,0,0,1-.36,1.78,4.13,4.13,0,0,1-1.28,1.53A6.48,6.48,0,0,1,17.57,65a7.44,7.44,0,0,1-4.45-2.1,6.13,6.13,0,0,1-1.9-4.58,7.33,7.33,0,0,1,.59-2.53l.29-.6c.11-.19.2-.36.32-.57l.2-.32.1-.16.05-.08h0v0l0,0c.13-.19.26-.37.41-.55A13.15,13.15,0,0,1,17.43,50a20.85,20.85,0,0,1,5.1-1.86,34.15,34.15,0,0,1,8.21-.8c.68.9,3.63,5.22,4.33,13,.62,6.87-1,16.62-9.66,25.21A13.6,13.6,0,0,0,21.68,83l1.38-1.21c.64-.56,1.22-1.09,1.73-1.55,1-.91,1.67-1.52,1.67-1.52l-.08-.1s-.76.5-1.88,1.27L22.6,81.22c-.62.43-1.28.9-1.94,1.37a13.63,13.63,0,0,0-2.86-.74l.51-.5C20,79.7,21.71,78.08,23,76.84s2.09-2.07,2.09-2.07l-.08-.1s-.93.72-2.3,1.83-3.2,2.59-5,4.08l-1.37,1.1,0,0h-.4a13.68,13.68,0,0,0-2.49.23l0-.08.23-.26c.32-.36.63-.75.95-1.17s.62-.86.92-1.32l.94-1.38c1.27-1.83,2.55-3.65,3.48-5s1.56-2.31,1.56-2.31l-.1-.08s-.74.84-1.82,2.12-2.51,3-3.93,4.7l-1.08,1.27c-.36.41-.71.83-1,1.24s-.56.75-.8,1.12a14.64,14.64,0,0,0-1.3-1.67l.37-.57c.22-.37.43-.76.64-1.16L13,76.12c.44-.8.89-1.6,1.29-2.36s.78-1.47,1.1-2.08c.64-1.22,1.06-2,1.06-2l-.11-.07s-.54.74-1.34,1.86c-.4.56-.87,1.21-1.35,1.92s-1,1.46-1.52,2.22l-.79,1.12c-.27.37-.52.73-.75,1.09l-.18.31a14.84,14.84,0,0,0-1.53-1.23l.06-.13c.18-.39.35-.81.52-1.23l.52-1.28c.36-.85.72-1.7,1.05-2.51s.63-1.55.89-2.2c.52-1.29.85-2.15.85-2.15l-.12-.06s-.47.8-1.15,2c-.34.6-.74,1.31-1.16,2.07S9.44,73,9,73.79L8.33,75c-.23.39-.44.78-.63,1.16A14.74,14.74,0,0,0,6,75.34v-.06c.1-.49.18-1,.26-1.51l.25-1.57c.35-2.09.71-4.18.94-5.76s.39-2.63.39-2.63l-.12,0s-.3,1-.71,2.56-1,3.59-1.5,5.64l-.42,1.53c-.13.46-.25.92-.36,1.37l-.73-.21.15-1c.17-1.1.32-2.26.47-3.46s.27-2.44.38-3.71l.38-3.83.77-7.54c.25-2.41.47-4.65.65-6.58l.62-6.42-.13,0-.93,6.38C6.13,50.4,5.8,52.63,5.47,55L4.41,62.53l-.55,3.81c-.19,1.26-.35,2.49-.52,3.69S3.07,72.4,3,73.51c0,.31-.06.62-.09.92-.42-.07-.85-.13-1.28-.17q0-2.37-.11-4.81l-.17-7L1,48.68.91,42.35.76,36.67C.68,33.2.6,30.3.54,28.26A2.26,2.26,0,0,0,2.71,26,2.27,2.27,0,0,0,.44,23.73H.28l-.28,0V19.64a3.06,3.06,0,0,0,.36,0,3,3,0,0,0,0-6.06,3,3,0,0,0-.36,0V.67C.12.44.24.23.36,0A134.49,134.49,0,0,0,11.1,17.27Z"/><path class="cls-2" d="M722.58,99.57c.89,2.1,4.85,7.34,9.39,13a25.11,25.11,0,0,1,4.18-2.8l-.18-.6c-.17-.61-.4-1.21-.62-1.81s-.49-1.19-.73-1.78l-.77-1.7c-.27-.54-.52-1.07-.78-1.56s-.5-1-.74-1.39c-.47-.85-.9-1.54-1.19-2s-.48-.75-.48-.75l.13-.1s.22.24.59.68c.19.22.4.49.65.81s.52.67.81,1.07.6.83.92,1.3.63,1,1,1.5.65,1.08,1,1.65.63,1.15.91,1.75.59,1.19.86,1.79l.2.43,1-.44-.34-.64a17.88,17.88,0,0,1-.82-1.77c-.26-.62-.46-1.3-.67-2s-.39-1.38-.59-2.07-.38-1.39-.53-2.08-.3-1.37-.42-2-.22-1.31-.3-1.92-.13-1.19-.17-1.73,0-1-.06-1.47,0-.82,0-1.14a5.76,5.76,0,0,1,.09-.72l0-.25.17,0v.26a5.6,5.6,0,0,0,0,.72c0,.3.05.67.1,1.1s.12.9.22,1.42.22,1.08.36,1.67.3,1.21.48,1.84.38,1.29.59,1.94.45,1.32.68,2,.51,1.31.79,1.94.55,1.26.81,1.86.47,1.2.68,1.76c.1.26.19.52.28.78.58-.19,1.16-.36,1.75-.51,0-.28.09-.57.12-.87.08-.57.14-1.17.21-1.79s.11-1.27.15-1.92.07-1.33.07-2,0-1.34,0-2-.06-1.31-.09-1.94-.11-1.23-.16-1.81l-.23-1.61-.26-1.35c-.07-.41-.18-.75-.24-1l-.23-.9.32.87c.1.28.24.61.35,1l.39,1.33.39,1.6c.11.57.24,1.18.35,1.81s.21,1.28.28,2,.16,1.35.2,2,.09,1.36.13,2,0,1.34,0,2,0,1.27,0,1.86c0,.13,0,.25,0,.37q1.08-.19,2.19-.28c.16-2.22.34-4.72.5-7.23l.94-14.91.12,14.94c0,2.46,0,4.92,0,7.12h.88V82.77a1.52,1.52,0,0,1-.36.08,1.56,1.56,0,0,1,0-3.11,1.5,1.5,0,0,1,.36.08V77.2h-.45a11.64,11.64,0,0,0-11.17,8.35,10.71,10.71,0,0,0-14.07,14ZM739.16,84.7a1,1,0,1,1,1,1A1,1,0,0,1,739.16,84.7Zm-4.4,4.82a.85.85,0,1,1,.85.85A.85.85,0,0,1,734.76,89.52Zm-7.24,1.42a1.7,1.7,0,1,1,1.7,1.7A1.7,1.7,0,0,1,727.52,90.94Zm-1.28,5a.85.85,0,1,1,.85.85A.85.85,0,0,1,726.24,95.9Z"/><path class="cls-2" d="M729.61,114.8c-5.36-4.82-10.33-9-12.37-10.06a10.71,10.71,0,0,0-13.67,15.54,11.63,11.63,0,0,0-10.16,11.53c0,.09,0,.18,0,.27H696a1.51,1.51,0,0,1-.08-.41,1.56,1.56,0,0,1,3.12,0,1.5,1.5,0,0,1-.08.41h23.89c0-.08,0-.15,0-.23,0-.49,0-1,0-1.45-.52-.18-1-.36-1.6-.54s-1.44-.45-2.18-.67-1.51-.43-2.28-.62-1.54-.39-2.3-.55-1.52-.32-2.25-.47-1.44-.26-2.11-.38l-1.91-.28-1.62-.19c-.48-.06-.9-.09-1.25-.12l-1.09-.09h1.1c.35,0,.77,0,1.26,0l1.64.06,1.93.12c.68.06,1.41.12,2.16.2s1.52.17,2.3.28,1.58.23,2.37.36,1.58.28,2.36.44,1.54.32,2.27.5c.47.1.92.22,1.36.33,0-.2,0-.4.08-.6l-1-.39c-.7-.29-1.41-.54-2.11-.85s-1.41-.59-2.09-.89-1.35-.63-2-1-1.25-.65-1.81-1-1.09-.67-1.57-1-.9-.62-1.28-.9-.69-.53-.94-.75l-.77-.7.11-.13.85.6c.27.18.62.38,1,.62s.85.47,1.34.74,1,.53,1.64.78l.9.4,1,.39c.65.26,1.33.51,2,.76s1.4.49,2.11.71,1.43.42,2.14.61l.87.22q.13-.62.3-1.23l-.7-.25a16.37,16.37,0,0,1-1.6-.76c-.54-.28-1.07-.58-1.61-.87s-1.07-.6-1.58-.92-1-.65-1.48-1-.91-.66-1.32-1-.79-.65-1.12-1-.64-.59-.9-.87a9.24,9.24,0,0,1-.65-.71l-.53-.64.12-.12.62.55c.19.18.45.37.73.59s.61.47,1,.72.78.51,1.2.78.9.53,1.39.8,1,.53,1.52.78,1.06.5,1.6.74,1.09.45,1.65.63,1.09.38,1.61.57l.57.23c.16-.45.33-.9.51-1.34l-1-.69c-.38-.24-.74-.5-1.1-.75s-.7-.52-1-.79-.64-.52-.92-.79-.53-.53-.77-.76-.43-.48-.6-.69-.32-.42-.42-.58l-.3-.52.14-.1.41.45.5.45c.2.17.44.35.69.54s.54.39.86.58.64.41,1,.6.72.39,1.09.6.75.4,1.15.58.67.31,1,.44c.29-.59.6-1.16.93-1.72-.31-.28-.61-.58-.92-.85-.48-.43-1-.87-1.37-1.31s-.79-.86-1.1-1.23-.56-.7-.71-.93l-.24-.37.13-.11.34.28c.22.17.52.41.9.69s.84.58,1.33.91,1,.66,1.55,1c.32.2.67.37,1,.54A25.16,25.16,0,0,1,729.61,114.8Zm-26.83,10.49a1.14,1.14,0,1,1-1.14-1.13A1.14,1.14,0,0,1,702.78,125.29Zm5-6.52a.71.71,0,1,1-.71-.71A.71.71,0,0,1,707.74,118.77Zm3.12-4.68a1.14,1.14,0,1,1-1.14-1.13A1.14,1.14,0,0,1,710.87,114.09Zm5.25-2.69a1,1,0,1,1-1-1A1,1,0,0,1,716.12,111.4Z"/><path class="cls-2" d="M747.91,121.36l.36,0v10.7h-10.8c0-.08,0-.15,0-.23A10.5,10.5,0,0,1,747.91,121.36Z"/><path class="cls-2" d="M747.91,110.18l.36,0v7.09l-.36,0a14.6,14.6,0,0,0-14.55,14.59c0,.08,0,.15,0,.23h-7.1c0-.08,0-.15,0-.23A21.69,21.69,0,0,1,747.91,110.18Z"/><path class="cls-2" d="M722,104.39l-.12-.09h.06Z"/><path class="cls-2" d="M704.58,77.74l5.94,7.93,6,7.89,2.28,3a13.61,13.61,0,0,0,1,4.2,14,14,0,0,0,1,1.81l-5.49-4.21c-.91-.7-1.74-1.31-2.52-1.87A78.35,78.35,0,0,0,705.63,92a16,16,0,0,1-6.84-7.49,50.13,50.13,0,0,1-4.69-20.95,45.21,45.21,0,0,1,13,5.26A12.39,12.39,0,0,1,712.32,75a35.79,35.79,0,0,0,8.45,12.68l.2.2a13.78,13.78,0,0,0-2.12,5.84l-1-1.24-6.32-7.63-6.37-7.59-3.2-3.78-3.23-3.76,2.93,4Z"/><path class="cls-2" d="M668.58,118.37c-12.87,2.34-24,7.17-31.75,13.56l.2.15h7.19a2.54,2.54,0,0,1,4.62,0H662.9l3.57-.1c2.47-.07,5.14-.14,8-.18s5.81-.12,8.9-.14l7.1-.08h0a14.5,14.5,0,0,1,.61-4h0L686,127c-2.16-.27-4.19-.56-6.07-.83-3.76-.52-6.89-1-9.08-1.36-1.1-.17-2-.33-2.54-.42l-.9-.15.91,0c.59,0,1.47.05,2.57.12,2.21.11,5.38.29,9.16.57,1.89.13,3.95.28,6.11.46,1.78.14,3.64.29,5.56.46h0a14.64,14.64,0,0,1,1.05-1.94v0q.29-.45.61-.87l0,0q.33-.44.7-.85l-7.59-1.77-4.35-1-4.35-1.07,4.41.74,4.41.76,8.32,1.49c.21-.2.42-.39.64-.57l.32-.26.34-.26c.32-.24.64-.47,1-.68l-1.3-.39q-3.68-1.1-7.34-2.25c2.5.56,5,1.13,7.48,1.72L698,119h0l.58-.31c.25-.12.5-.24.75-.35-.08-.26-.15-.52-.21-.78l0-.18q-.08-.35-.14-.71v-.08a13.81,13.81,0,0,1-.18-1.73l-3.64-1.52,3.63,1.15h0c0-.25,0-.49,0-.74,0-.06,0-.12,0-.18s0-.38,0-.56l0-.21c0-.19,0-.38.08-.57l0-.17c0-.25.09-.5.14-.74h0c.05-.24.12-.47.18-.71l.06-.21c.05-.17.1-.34.16-.5l.08-.24.19-.49.09-.21c.1-.23.2-.46.31-.68l.07-.13-1.14-.66,1.2.56h0a13.87,13.87,0,0,1,1.25-2l.05-.07.4-.49.16-.18.39-.42.21-.21.39-.38.24-.21c.32-.29.66-.56,1-.82-1.38-1-2.77-2-4.14-3.08,1.51.93,3,1.88,4.52,2.82q.41-.28.84-.53l0,0q.41-.23.83-.44l.08,0q.4-.19.81-.36l.13-.05.78-.28.18-.06.75-.2.23-.06.73-.14.27,0,.74-.08.27,0c.34,0,.68,0,1,0h0l.6,0,.41,0c-.79-.61-1.6-1.21-2.43-1.8-13.16-9.31-27.71-13.5-39.41-12.36a46.21,46.21,0,0,0,5.75,13.28,32.93,32.93,0,0,0,4.26,5.33,13.63,13.63,0,0,0,2.63,2,7.71,7.71,0,0,0,1.41.64,5.78,5.78,0,0,0,.72.19l.17,0h.09l.11,0,.45.06a9.58,9.58,0,0,0,1.5,0,6.85,6.85,0,0,0,1.43-.25,5.46,5.46,0,0,0,2.36-1.4,6.65,6.65,0,0,0,1.49-2.33,5.29,5.29,0,0,0,.33-1.25,2.19,2.19,0,0,0,0-.27v-.36c0-.21,0-.45,0-.66a6,6,0,0,0-.78-2.38,4.08,4.08,0,0,0-1.64-1.53,5.11,5.11,0,0,0-1-.39l-.53-.11-.31,0-.25,0a4.35,4.35,0,0,0-2,.36,3.63,3.63,0,0,0-1.41,1.08,4.44,4.44,0,0,0-.72,1.43,6.3,6.3,0,0,0-.16,2.39c.07.57.14.88.14.88l-.1-.21a6.24,6.24,0,0,1-.26-.62,6,6,0,0,1-.38-2.58,5.3,5.3,0,0,1,.16-.92,5.18,5.18,0,0,1,.39-1,4.92,4.92,0,0,1,1.63-1.77,5.84,5.84,0,0,1,2.62-.87l.39,0h.33a7.72,7.72,0,0,1,.77,0,5.89,5.89,0,0,1,1.56.38,6.34,6.34,0,0,1,2.75,2.1,7.8,7.8,0,0,1,1.42,3.34c.06.31.1.6.12.93l0,.24v.2a5,5,0,0,1,0,.54,8,8,0,0,1-.39,2,9.11,9.11,0,0,1-2,3.44,8.22,8.22,0,0,1-3.61,2.21,8.94,8.94,0,0,1-2.1.36,12.18,12.18,0,0,1-2.12-.08l-.46-.07-.27,0-.27-.06a8.7,8.7,0,0,1-1-.3,10.64,10.64,0,0,1-1.93-.9,15.62,15.62,0,0,1-3.16-2.54l-.66-.71a10.25,10.25,0,0,0-8.48-3.39A48.82,48.82,0,0,0,657.11,106,51,51,0,0,0,668.58,118.37Zm15.64-25.22a3,3,0,1,1-3-3A3,3,0,0,1,684.22,93.15Zm-10.34,19.62a1.3,1.3,0,1,1-1,1.58A1.31,1.31,0,0,1,673.89,112.77Zm-6-2a2.54,2.54,0,1,1,3.08,1.85A2.54,2.54,0,0,1,667.91,110.78Z"/><path class="cls-2" d="M748.27,34.9c-.07-2.69-.13-5-.18-6.64l.18,0Z"/><path class="cls-2" d="M748.27,13.65a3,3,0,1,0,0,6v4.12l-.28,0h-.15a2.26,2.26,0,0,0-.1,4.53c-.06,2-.14,4.94-.23,8.42l-.15,5.68-.14,6.34-.28,13.77-.17,7q-.08,2.45-.11,4.81c-.43,0-.86.09-1.28.17,0-.3-.06-.61-.09-.92-.1-1.1-.23-2.27-.37-3.47s-.32-2.44-.52-3.69l-.55-3.81L742.8,55c-.33-2.4-.66-4.63-.94-6.54l-.93-6.38-.13,0,.62,6.42c.19,1.93.4,4.17.65,6.58l.77,7.54.38,3.83c.11,1.27.25,2.51.38,3.71s.3,2.36.47,3.46l.15,1-.73.21c-.1-.45-.23-.9-.36-1.37L742.71,72c-.54-2.05-1.06-4.11-1.5-5.64s-.71-2.56-.71-2.56l-.12,0s.15,1.05.39,2.63.6,3.67.94,5.76l.25,1.57c.07.52.16,1,.26,1.51v.06a14.73,14.73,0,0,0-1.65.82c-.19-.38-.41-.77-.63-1.16l-.67-1.21c-.44-.81-.87-1.63-1.3-2.39s-.82-1.47-1.16-2.07c-.68-1.21-1.15-2-1.15-2l-.12.06s.33.87.85,2.15c.26.64.56,1.4.89,2.2s.69,1.65,1.05,2.51l.52,1.28c.16.43.33.84.52,1.23l.06.13a14.82,14.82,0,0,0-1.53,1.23l-.18-.31c-.23-.36-.48-.73-.75-1.09l-.79-1.12c-.52-.76-1-1.52-1.52-2.22s-1-1.36-1.35-1.92c-.79-1.12-1.34-1.86-1.34-1.86l-.11.07s.41.82,1.06,2c.32.61.69,1.32,1.1,2.08s.85,1.56,1.29,2.36l.64,1.21c.21.4.42.79.64,1.16l.37.57a14.64,14.64,0,0,0-1.3,1.67c-.24-.37-.51-.74-.8-1.12s-.67-.83-1-1.24l-1.08-1.27c-1.43-1.71-2.84-3.44-3.93-4.7S727,70.28,727,70.28l-.1.08s.61.93,1.56,2.31,2.21,3.21,3.48,5l.94,1.38c.3.46.61.9.92,1.32s.63.81.95,1.17l.23.26,0,.08a13.68,13.68,0,0,0-2.49-.23H732l0,0-1.37-1.1c-1.82-1.49-3.63-3-5-4.08s-2.3-1.83-2.3-1.83l-.09.1s.83.84,2.09,2.07,3,2.87,4.64,4.5l.51.5a13.63,13.63,0,0,0-2.86.74c-.66-.47-1.31-.94-1.94-1.37l-1.91-1.31c-1.12-.77-1.88-1.27-1.88-1.27l-.08.1s.66.62,1.67,1.52c.5.45,1.09,1,1.73,1.55L726.58,83a13.6,13.6,0,0,0-3.72,2.59c-8.7-8.59-10.28-18.35-9.66-25.21.7-7.79,3.66-12.11,4.33-13a34.15,34.15,0,0,1,8.21.8,20.85,20.85,0,0,1,5.1,1.86A13.15,13.15,0,0,1,735,53.5c.15.18.27.37.41.55l0,0v0h0l.05.08.1.16.2.32c.12.2.21.38.32.57l.29.6a7.33,7.33,0,0,1,.59,2.53,6.12,6.12,0,0,1-1.9,4.58A7.43,7.43,0,0,1,730.7,65a6.48,6.48,0,0,1-4.33-1.09,4.13,4.13,0,0,1-1.28-1.53,3.86,3.86,0,0,1-.36-1.78,2.74,2.74,0,0,1,1.59-2.39,3.39,3.39,0,0,1,1.94-.43,2.44,2.44,0,0,1,.53.11L729,58l-.17-.08a2.5,2.5,0,0,0-.52-.16,3.52,3.52,0,0,0-2.05.29,3.75,3.75,0,0,0-1.24.88,2.71,2.71,0,0,0-.49.74,3.19,3.19,0,0,0-.23.93,4.4,4.4,0,0,0,.26,2.06,4.83,4.83,0,0,0,1.35,1.9,7.46,7.46,0,0,0,4.89,1.64,8.82,8.82,0,0,0,5.47-2.08,8.18,8.18,0,0,0,2-2.5,7.82,7.82,0,0,0,.87-3.25,9.5,9.5,0,0,0-.5-3.36c-.1-.26-.19-.53-.3-.79s-.25-.55-.37-.79l-.18-.34-.09-.17,0-.08-.07-.12c-.14-.24-.28-.48-.44-.71a15.93,15.93,0,0,0-4.74-4.57,24.06,24.06,0,0,0-5.71-2.62c-.55-.17-1.1-.33-1.65-.47-.89-5.88,1.74-11.6,5.78-17.88a9,9,0,0,0,8.58,6.69s-3.63-2-4.49-8.41v0c-.28-2.11,1-5.72,2.27-7.45A134.46,134.46,0,0,0,747.91,0c.11.23.24.44.36.67Z"/></g></g></g></svg>