<svg xmlns="http://www.w3.org/2000/svg" xmlns:xlink="http://www.w3.org/1999/xlink" viewBox="0 0 78 78"><defs><style>.cls-1{fill:none;stroke:#fbb03b;stroke-miterlimit:10;stroke-width:2px;}.cls-2{fill:url(#New_Gradient_Swatch_2);}.cls-3{fill:url(#New_Gradient_Swatch_2-2);}.cls-4{fill:url(#New_Gradient_Swatch_2-3);}.cls-5{fill:url(#New_Gradient_Swatch_2-4);}.cls-6{fill:url(#New_Gradient_Swatch_2-5);}.cls-7{fill:url(#New_Gradient_Swatch_2-6);}.cls-8{fill:url(#New_Gradient_Swatch_2-7);}.cls-9{fill:url(#New_Gradient_Swatch_2-8);}</style><linearGradient id="New_Gradient_Swatch_2" x1="27.3" y1="21.53" x2="60.58" y2="21.53" gradientUnits="userSpaceOnUse"><stop offset="0" stop-color="#f6ab3d"/><stop offset="0.48" stop-color="#f3ed91"/><stop offset="0.49" stop-color="#f3ed91"/><stop offset="0.83" stop-color="#f5bd55"/><stop offset="1" stop-color="#f6ab3d"/></linearGradient><linearGradient id="New_Gradient_Swatch_2-2" x1="27.3" y1="32.71" x2="60.58" y2="32.71" xlink:href="#New_Gradient_Swatch_2"/><linearGradient id="New_Gradient_Swatch_2-3" x1="27.3" y1="43.89" x2="60.58" y2="43.89" xlink:href="#New_Gradient_Swatch_2"/><linearGradient id="New_Gradient_Swatch_2-4" x1="27.3" y1="55.7" x2="60.58" y2="55.7" xlink:href="#New_Gradient_Swatch_2"/><linearGradient id="New_Gradient_Swatch_2-5" x1="16.04" y1="21.53" x2="20.36" y2="21.53" xlink:href="#New_Gradient_Swatch_2"/><linearGradient id="New_Gradient_Swatch_2-6" x1="16.04" y1="32.71" x2="20.36" y2="32.71" xlink:href="#New_Gradient_Swatch_2"/><linearGradient id="New_Gradient_Swatch_2-7" x1="16.04" y1="43.89" x2="20.36" y2="43.89" xlink:href="#New_Gradient_Swatch_2"/><linearGradient id="New_Gradient_Swatch_2-8" x1="16.04" y1="55.7" x2="20.36" y2="55.7" xlink:href="#New_Gradient_Swatch_2"/></defs><title>icon_list_m</title><g id="图层_2" data-name="图层 2"><g id="_4" data-name="4"><path class="cls-2" d="M58.42,19.37h-29a2.16,2.16,0,1,0,0,4.32h29a2.16,2.16,0,1,0,0-4.32Z"/><path class="cls-3" d="M58.42,30.55h-29a2.16,2.16,0,1,0,0,4.32h29a2.16,2.16,0,0,0,0-4.32Z"/><path class="cls-4" d="M58.42,41.73h-29a2.16,2.16,0,1,0,0,4.32h29a2.16,2.16,0,0,0,0-4.32Z"/><path class="cls-5" d="M58.42,53.54h-29a2.16,2.16,0,1,0,0,4.32h29a2.16,2.16,0,1,0,0-4.32Z"/><circle class="cls-6" cx="18.2" cy="21.53" r="2.16"/><circle class="cls-7" cx="18.2" cy="32.71" r="2.16"/><circle class="cls-8" cx="18.2" cy="43.89" r="2.16"/><circle class="cls-9" cx="18.2" cy="55.7" r="2.16"/></g></g></svg>