<svg xmlns="http://www.w3.org/2000/svg" xmlns:xlink="http://www.w3.org/1999/xlink" viewBox="0 0 78 78"><defs><style>.cls-1{fill:url(#New_Gradient_Swatch_2);}.cls-2{fill:none;stroke:#fbb03b;stroke-miterlimit:10;stroke-width:2px;}</style><linearGradient id="New_Gradient_Swatch_2" x1="20" y1="39" x2="58" y2="39" gradientUnits="userSpaceOnUse"><stop offset="0" stop-color="#f6ab3d"/><stop offset="0.48" stop-color="#f3ed91"/><stop offset="0.49" stop-color="#f3ed91"/><stop offset="0.83" stop-color="#f5bd55"/><stop offset="1" stop-color="#f6ab3d"/></linearGradient></defs><title>icon_rule_m</title><g id="图层_2" data-name="图层 2"><g id="_2" data-name="2"><g id="_7" data-name="7"><path class="cls-1" d="M48.5,41.71h-19a1.36,1.36,0,0,0,0,2.71h19a1.36,1.36,0,1,0,0-2.71Zm0-8.17h-19a1.36,1.36,0,1,0,0,2.71h19a1.36,1.36,0,1,0,0-2.71Zm0-8.11h-19a1.36,1.36,0,1,0,0,2.71h19a1.36,1.36,0,1,0,0-2.71Zm4.07-8.14H25.43A5.43,5.43,0,0,0,20,22.71v38h2.53l5.61-4.07,5.43,4.07L39,56.64l5.43,4.07,5.43-4.07,5.61,4.07H58v-38A5.43,5.43,0,0,0,52.57,17.29ZM55.29,58l-5.43-4.11-5.43,4.33L39,53.93l-5.43,4.33-5.43-4.33-5.43,4.15V22.71A2.71,2.71,0,0,1,25.43,20H52.57a2.71,2.71,0,0,1,2.71,2.71Z"/></g></g></g></svg>