<svg xmlns="http://www.w3.org/2000/svg" xmlns:xlink="http://www.w3.org/1999/xlink" viewBox="0 0 78 78"><defs><style>.cls-1{fill:none;stroke:#fbb03b;stroke-miterlimit:10;stroke-width:2px;}.cls-2{fill:url(#New_Gradient_Swatch_2);}.cls-3{fill:url(#New_Gradient_Swatch_2-2);}</style><linearGradient id="New_Gradient_Swatch_2" x1="27.37" y1="36.87" x2="64.24" y2="36.87" gradientUnits="userSpaceOnUse"><stop offset="0" stop-color="#f6ab3d"/><stop offset="0.48" stop-color="#f3ed91"/><stop offset="0.49" stop-color="#f3ed91"/><stop offset="0.83" stop-color="#f5bd55"/><stop offset="1" stop-color="#f6ab3d"/></linearGradient><linearGradient id="New_Gradient_Swatch_2-2" x1="16.46" y1="45.15" x2="23.51" y2="45.15" xlink:href="#New_Gradient_Swatch_2"/></defs><title>icon_like_m</title><g id="图层_2" data-name="图层 2"><g id="_4" data-name="4"><path class="cls-2" d="M64.17,37.27A7.12,7.12,0,0,0,59,31.61c-1.49-.5-4.17-1.09-6.25-1.59,3.87-5.55,4.56-11.21,3.17-14.48a4.89,4.89,0,0,0-4.56-3.17c-4.46,0-5.16,4.07-6.15,6.84-.69,2.08-4.17,5.85-9.32,8.73a84.33,84.33,0,0,0-7.74,5.16,2.12,2.12,0,0,0-.79,1.69V55.62a2,2,0,0,0,.89,1.69c3.07,2.18,14.09,4.07,19.54,4.07,2.88,0,4-.5,4.56-.79,2.48-1.39,5.75-9.22,8.13-15.87C63.28,42.62,64.57,39.95,64.17,37.27Zm-6.74,4.27a2.81,2.81,0,0,0-.79,1.09c-2.18,6-5.26,13-6.45,14.18a5.87,5.87,0,0,1-2.38.3,57.22,57.22,0,0,1-16.07-2.78V35.88A56.19,56.19,0,0,1,38,31.71c5.55-3.17,10.22-7.54,11.41-11.11.1-.4.2-.89.3-1.29.89-2.68,1.09-2.68,1.69-2.68.2,0,.4,0,.69.6.89,2.08.1,7.44-4.66,12.6A2.16,2.16,0,0,0,48.5,33.4c.1,0,6.55,1.49,9.22,2.28a2.85,2.85,0,0,1,2.18,2.18C60.11,39.05,59.11,40.34,57.43,41.53Z"/><path class="cls-3" d="M19.93,31a3.39,3.39,0,0,0-3.47,3.47V55.82a3.39,3.39,0,0,0,3.47,3.47,3.47,3.47,0,0,0,3.57-3.47V34.49A3.47,3.47,0,0,0,19.93,31Z"/></g></g></svg>