<svg xmlns="http://www.w3.org/2000/svg" xmlns:xlink="http://www.w3.org/1999/xlink" viewBox="0 0 607.75 150.41"><defs><style>.cls-1{fill:url(#New_Gradient_Swatch_2);}.cls-2{fill:url(#New_Gradient_Swatch_2-2);}.cls-3{fill:url(#New_Gradient_Swatch_2-3);}.cls-4{fill:url(#New_Gradient_Swatch_2-4);}.cls-5{fill:url(#New_Gradient_Swatch_2-5);}.cls-6{fill:url(#New_Gradient_Swatch_2-6);}.cls-7{fill:url(#New_Gradient_Swatch_2-7);}.cls-8{fill:url(#New_Gradient_Swatch_2-8);}.cls-9{fill:url(#linear-gradient);}.cls-10{fill:url(#linear-gradient-2);}.cls-11{fill:url(#linear-gradient-3);}.cls-12{fill:url(#linear-gradient-4);}.cls-13{fill:url(#linear-gradient-5);}.cls-14{fill:url(#linear-gradient-6);}.cls-15{fill:url(#linear-gradient-7);}.cls-16{fill:url(#linear-gradient-8);}.cls-17{fill:url(#linear-gradient-9);}.cls-18{fill:url(#linear-gradient-10);}</style><linearGradient id="New_Gradient_Swatch_2" y1="105.31" x2="45.98" y2="105.31" gradientUnits="userSpaceOnUse"><stop offset="0" stop-color="#f6ab3d"/><stop offset="0.48" stop-color="#f3ed91"/><stop offset="0.49" stop-color="#f3ed91"/><stop offset="0.83" stop-color="#f5bd55"/><stop offset="1" stop-color="#f6ab3d"/></linearGradient><linearGradient id="New_Gradient_Swatch_2-2" x1="48.45" y1="105.31" x2="94.57" y2="105.31" xlink:href="#New_Gradient_Swatch_2"/><linearGradient id="New_Gradient_Swatch_2-3" x1="97.04" y1="105.31" x2="142.88" y2="105.31" xlink:href="#New_Gradient_Swatch_2"/><linearGradient id="New_Gradient_Swatch_2-4" x1="146.46" y1="105.31" x2="190.45" y2="105.31" xlink:href="#New_Gradient_Swatch_2"/><linearGradient id="New_Gradient_Swatch_2-5" x1="416.18" y1="105.31" x2="462.21" y2="105.31" xlink:href="#New_Gradient_Swatch_2"/><linearGradient id="New_Gradient_Swatch_2-6" x1="464.73" y1="105.31" x2="510.71" y2="105.31" xlink:href="#New_Gradient_Swatch_2"/><linearGradient id="New_Gradient_Swatch_2-7" x1="513.37" y1="105.31" x2="559.25" y2="105.31" xlink:href="#New_Gradient_Swatch_2"/><linearGradient id="New_Gradient_Swatch_2-8" x1="561.68" y1="105.31" x2="607.75" y2="105.31" xlink:href="#New_Gradient_Swatch_2"/><linearGradient id="linear-gradient" x1="357.28" y1="106.59" x2="396.58" y2="106.59" gradientUnits="userSpaceOnUse"><stop offset="0" stop-color="#dcc215"/><stop offset="0.42" stop-color="#f2efa5"/><stop offset="1" stop-color="#ffff83"/></linearGradient><linearGradient id="linear-gradient-2" x1="249.81" y1="101.76" x2="342.9" y2="101.76" xlink:href="#linear-gradient"/><linearGradient id="linear-gradient-3" x1="211.54" y1="112.52" x2="376.93" y2="112.52" xlink:href="#linear-gradient"/><linearGradient id="linear-gradient-4" x1="338.31" y1="106.58" x2="377.08" y2="106.58" xlink:href="#linear-gradient"/><linearGradient id="linear-gradient-5" x1="254.35" y1="83.34" x2="360.39" y2="82.84" xlink:href="#linear-gradient"/><linearGradient id="linear-gradient-6" x1="254.1" y1="29.64" x2="360.14" y2="29.14" xlink:href="#linear-gradient"/><linearGradient id="linear-gradient-7" x1="254.15" y1="39.92" x2="360.19" y2="39.42" xlink:href="#linear-gradient"/><linearGradient id="linear-gradient-8" x1="254.32" y1="74.65" x2="360.34" y2="74.14" xlink:href="#linear-gradient"/><linearGradient id="linear-gradient-9" x1="254.23" y1="56.35" x2="360.27" y2="55.84" xlink:href="#linear-gradient"/><linearGradient id="linear-gradient-10" x1="254.23" y1="54.77" x2="360.19" y2="54.27" xlink:href="#linear-gradient"/></defs><title>logo_m</title><g id="图层_2" data-name="图层 2"><g id="_4" data-name="4"><path class="cls-1" d="M5.92,82.37H17.36l-3.54,9h1.79v17.41h-11V97.07H0ZM0,113.9H17.22v-4H28.76v4H46v3.69H28.76v10.67H17.22V117.59H0ZM18.77,96.58l7-2.28V82.37h11v8.25L46,87.56v4l-9.22,3.06v10H46v3.69H25.75V98.28l-7,2.28Z"/><path class="cls-2" d="M72,98.14l-1.21,3.15H93.94V108l-8.83,9.89,9.46,10.38H81.38l-2.81-3.06-2.72,3.06H62.71l9.22-10.33-5.19-5.72-6,16.05H48.93l11.3-30.12H48.45L54,83.92h9.89L59.94,94.45h1.65l4.56-12.08H77.94L73.38,94.45h20.9v3.69ZM73.38,105l5.14,5.63,5-5.63Zm7.81-21.24h9.89l2.18,8.59H83.37Z"/><path class="cls-3" d="M100.58,112.71V98.26H97l5.53-16h11.3l-1.55,4.46h6.79l-1-4.22h11.69l1.07,4.22h12v3.69H131.33V94H142v3.69H131.33V101H142v3.69H131.33v2.86h11.35v3.69h-30.6v1.5Zm-2.18,2.23h16.68v-2.38h11.54v2.38h16v3.69h-2.57l2.57,9.7H131.14l-2.62-9.7h-1.89v9.7H115.09v-9.7h-1.84l-2.62,9.7H99.13l2.57-9.7H98.4Zm13.68-21h7.71V90.45h-7.71Zm0,7h7.71v-3.3h-7.71Zm0,6.55h7.71v-2.86h-7.71Z"/><path class="cls-4" d="M146.46,83.66h44v39.67a3.6,3.6,0,0,1-3.64,3.64H146.46Zm9.41,3.4v36.57H180a1.06,1.06,0,0,0,1.07-1.11V87.05Zm11.2,31.67H168a1.4,1.4,0,0,0,1.41-1.36V98.11h-1.26l-2.86,23.81h-8.2l2.86-23.81h-3.3V94.43H169.4v-5h9v5h1.89v3.69h-1.89v19.26a4.6,4.6,0,0,1-4.61,4.56h-6.69Z"/><path class="cls-5" d="M416.18,98.09h46v3.69h-8v21.53H462V127H442.71V101.77H434.9l-6.35,25.42h-11.5l6.31-25.42h-7.18Zm2-14.65h42v3.69h-42Z"/><path class="cls-6" d="M464.73,124.06h46v3.69h-46Zm44.23-9.6a4.64,4.64,0,0,1-4.61,4.61H466.48V82.88H509ZM478,99.13h19.45V86.57H478Zm19.45,3.69H478v12.56h18.09a1.35,1.35,0,0,0,1.36-1.36Z"/><path class="cls-7" d="M530.1,84.77v37.1a4.55,4.55,0,0,1-4.51,4.61H513.37V84.77Zm-9.51,19h2.23V88.46H520.6Zm2.23,3.69H520.6V122.8h.92a1.35,1.35,0,0,0,1.31-1.36Zm21.49-25.22-1.07,3.15h15.18l-3.1,9.7h3.78v13.48a4.55,4.55,0,0,1-4.41,4.66h-1.46v11.45h6v3.69h-14.6V117.95l-5.38,10.43h-9l7.86-15.13h-6.3V95.1h14l1.94-6H542l-1.41,4.22h-9.51l3.73-11.11Zm-4.7,27.26h1.6V98.79h-1.6ZM551.4,98.79h-1.65v10.72H550a1.35,1.35,0,0,0,1.36-1.36Z"/><path class="cls-8" d="M594.95,99.86,584.91,87,574.63,99.86h-13l13.39-17.27h19.21l13.39,17.27Zm-33.18,14.5h6.35l-5,13.68h38.41a4.49,4.49,0,0,0,3.88-2.09,4.54,4.54,0,0,0,.24-4.51l-2.09-4.37h-11.3l2.67,5.29a1.25,1.25,0,0,1,0,1.36,1.32,1.32,0,0,1-1.16.63H576.18l3.54-10h28v-3.69h-46Zm1.55-7.91H606.1v-3.69H563.32Z"/><polygon class="cls-9" points="357.28 76.04 357.28 82.48 386.02 82.48 359.92 137.15 363.1 137.15 366.3 137.15 367.33 137.15 396.58 76.04 357.28 76.04"/><path class="cls-10" d="M296.36,55.22a46.54,46.54,0,1,0,46.54,46.54A46.54,46.54,0,0,0,296.36,55.22Zm0,86.13a39.58,39.58,0,1,1,39.58-39.58A39.58,39.58,0,0,1,296.36,141.35Z"/><path class="cls-11" d="M220.74,136,235,119.54a101.57,101.57,0,0,0,10.33-12.65q5.27-8.18,5.27-15.14,0-8.43-5.48-12.95-5.06-4.17-13.66-4.17-9,0-14.13,4.72t-5.23,13.79q0,.3,0,.82t0,.82h6.92v-.72q0-12.69,12.1-12.69a12.94,12.94,0,0,1,8.52,2.78,9.78,9.78,0,0,1,3.63,8q0,7.08-15.05,24.92-2.7,3.16-3.75,4.43l-13,15.48c52,44.16,113.35-38.72,165.39,5.44-.45-2.34-4.09-5.71-5.9-7.6C320.69,92.12,270.83,170.51,220.74,136Z"/><polygon class="cls-12" points="345.11 130.19 345.11 137.15 352.28 137.15 352.28 127.54 352.28 127.54 352.28 76 336.64 76 332.5 82.41 345.11 82.41 345.11 92.09 345.11 130.19"/><path class="cls-13" d="M256.65,82.88c-.15.31-.3.61-.44.9C255.94,82.85,256,82.94,256.65,82.88Z"/><path class="cls-14" d="M289,29.33a1.94,1.94,0,0,1-1.6,1.89c-.89,0-1.19-1-1.23-1.69C286.29,27.49,289.14,26.92,289,29.33Z"/><path class="cls-15" d="M280.23,35c-.9.63-2.61,0-4,1l-6.92,5.83c-6.92,5.83-2.55,16.76,1.09,12.75v0c.5-.21.57-.1,1-.45.69-.81,2.36-.58,3.19-.31,5.87,2,7.14-3.77,6.4-7.93-.09-.5.53-.56.88-.58,7.89-.36,15-4,13.73-12.78-1.2-8.24-10.92-10.86-17.47-6.28C281,29,286.24,34.58,280.23,35Zm2.94-5.72a1,1,0,0,1,.06-.39c.67-4.95,8.51-4.43,8.78.59a4,4,0,0,1-4.3,3.94,4.61,4.61,0,0,1-4.49-3.81A.89.89,0,0,1,283.17,29.33Z"/><path class="cls-16" d="M278.9,75.48a9.93,9.93,0,0,1,.26-1.89C279.08,74.24,279,74.86,278.9,75.48Z"/><path class="cls-17" d="M267.87,75a25.54,25.54,0,0,0-4.74,15.3c.36-4,4.37,0,11.29-18.21V95.45s2.35-5,4.47-20a9.93,9.93,0,0,1,.26-1.89c-.08.65-.17,1.27-.26,1.89-.27,4.15.38,13.15,2.81,24.7C281,94,283.9,95.45,285,80.51c3.28,26.23,7,22.41,8.38,23.68-3.28-4.37-3.64-13.84-.36-30.6-1.09,12.39,2.55,19.31,9.39,31.33,0,0-5-12-3.2-25.14.73,19.67,14.21,29.51,20.76,32.42-7.65-5.46-15.3-22.22-14.57-28.78,2.55,5.46,7.65,14.94,14.94,21.13-5.1-5.1-6.19-13.84-8.74-22.95,1.46,3.64,7.29,12,14.93,20.4-.36-1.82-5.1-8-6.92-21.13,1.46,8,9.84,14.57,19.67,27.32-2.19-9.84-13.11-21.86-14.57-33.88-.36-27-9.47-36.06-13.48-41.16,16,.36,0-6.92-3.28-8.74-.73-2.19.36-3.64,5.1-4.74-2.19,0-6.56-3.64-10.93-3.1a24.16,24.16,0,0,1,1.82-7.83c-2.92,0-4,2.19-7.65,5.1,0,0,.73-9.11,0-10.93-3.64,0-5.46,6.92-5.46,6.92s-1.46-5.46,0-9.84C281.35,5.46,281,10.2,281,10.2a52.61,52.61,0,0,1,0-8.74c-2.19,1.46-8.74,14.21-8.74,14.21l-.73-6.19c-13.48,14.94,0,18.22,0,18.22L266,33.15c3.64,2.18,10.2,2.91,10.2,2.91.78-1.19.81-1.85,1.49-2.33a1.16,1.16,0,0,1,.75-.22c4.14-.1-2.09-6.29-3.21-7.29a.86.86,0,0,1-.29-.4.26.26,0,0,1,.08-.36c6.75-5.08,19.33-3.88,22.75,4.63a12.65,12.65,0,0,1-.61,11.18,11.05,11.05,0,0,1-4.87,4c-1.75.85-8.3,1.1-8.12,2.61.45,3.8-1.38,8-5.73,8-1.75,0-5.42-1.42-6-1.34a8.11,8.11,0,0,1-2.06.21c.13.67,1.21,7.14-2.93,12.32S259,78.24,256.65,82.88C257.82,82.77,260.94,82.21,267.87,75Zm5.39-43.52c1.76-.11,4.18-.33,5.65.85.66.53-.82.55-1.19.25a1.51,1.51,0,0,0-.23-.12H272.3c-1.1.1-2.19.23-3.27.41-.47.08-1.75-.68-.9-.81C269.82,31.82,271.54,31.64,273.26,31.53Z"/><path class="cls-18" d="M270.36,54.71l.07,0v0Z"/></g></g></svg>